<svg width="34" height="39" viewBox="0 0 34 39" fill="none" xmlns="http://www.w3.org/2000/svg">
<g clip-path="url(#clip0_30_977)">
<path d="M19.9326 30.6448C19.2906 30.6448 18.6819 30.7921 18.1379 31.0549C18.136 31.0549 18.136 31.0568 18.136 31.0568C15.7992 32.0933 12.7574 32.3337 10.4576 30.9431L10.4483 30.9375C5.62473 28.1263 5.62658 21.0873 10.4483 18.278L10.4576 18.2724C12.7574 16.8817 15.7992 17.1204 18.136 18.1587C18.136 18.1587 18.136 18.1606 18.1379 18.1606C20.8226 19.5009 24.1179 17.4335 24.0772 14.3968C24.1216 11.3005 20.6968 9.23126 18.0121 10.6983L17.7401 10.8549L14.0822 12.9708V12.926L4.85318 18.2948L2.99554 19.376C0.99913 20.543 0.00555072 22.5432 0 24.6087C0.00555072 26.6723 0.99913 28.6725 2.99554 29.8395L4.85318 30.9207L14.0822 36.2895V36.2447L17.7401 38.3605L18.0121 38.5171C20.6968 39.9842 24.1197 37.915 24.0772 34.8187C24.0772 32.5127 22.2214 30.6448 19.9326 30.6448Z"/>
<path d="M14.0673 8.35323C14.7094 8.35323 15.3181 8.20597 15.8621 7.94312C15.8639 7.94312 15.8639 7.94126 15.8639 7.94126C18.2008 6.90479 21.2426 6.66431 23.5424 8.05497L23.5517 8.06056C28.3752 10.8717 28.3734 17.9108 23.5517 20.72L23.5424 20.7256C21.2426 22.1163 18.2008 21.8777 15.8639 20.8393C15.8639 20.8393 15.8639 20.8375 15.8621 20.8375C13.1774 19.4972 9.88209 21.5645 9.92279 24.6012C9.87838 27.6976 13.3032 29.7668 15.9879 28.2997L16.2599 28.1431L19.9178 26.0273V26.072L29.1468 20.7033L31.0044 19.6221C33.0008 18.4551 33.9944 16.4549 34 14.3912C33.9944 12.3276 33.0008 10.3274 31.0044 9.16041L29.1468 8.0792L19.9178 2.71044V2.75517L16.2599 0.639358L15.9879 0.482769C13.3032 -0.984321 9.88024 1.08489 9.92279 4.18125C9.92279 6.48721 11.7786 8.3551 14.0673 8.3551V8.35323Z"/>
</g>
<defs>
<clipPath id="clip0_30_977">
<rect width="34" height="39"/>
</clipPath>
</defs>
</svg>
