<svg width="45" height="45" viewBox="0 0 45 45" fill="none" xmlns="http://www.w3.org/2000/svg">
<path d="M20.8214 9.91424C20.8214 10.7427 21.4929 11.4142 22.3214 11.4142C23.1498 11.4142 23.8214 10.7427 23.8214 9.91424H20.8214ZM23.8214 1.64282C23.8214 0.814395 23.1498 0.142822 22.3214 0.142822C21.4929 0.142822 20.8214 0.814395 20.8214 1.64282H23.8214ZM20.8214 42.9999C20.8214 43.8283 21.4929 44.4999 22.3214 44.4999C23.1498 44.4999 23.8214 43.8283 23.8214 42.9999H20.8214ZM23.8214 34.7285C23.8214 33.9 23.1498 33.2285 22.3214 33.2285C21.4929 33.2285 20.8214 33.9 20.8214 34.7285H23.8214ZM34.7285 20.8214C33.9001 20.8214 33.2285 21.4929 33.2285 22.3214C33.2285 23.1498 33.9001 23.8214 34.7285 23.8214V20.8214ZM42.9999 23.8214C43.8283 23.8214 44.4999 23.1498 44.4999 22.3214C44.4999 21.4929 43.8283 20.8214 42.9999 20.8214V23.8214ZM1.64282 20.8214C0.814395 20.8214 0.142822 21.4929 0.142822 22.3214C0.142822 23.1498 0.814395 23.8214 1.64282 23.8214V20.8214ZM9.91424 23.8214C10.7427 23.8214 11.4142 23.1498 11.4142 22.3214C11.4142 21.4929 10.7427 20.8214 9.91424 20.8214V23.8214ZM38.8642 22.3212H37.3642C37.3642 30.6292 30.6293 37.3641 22.3214 37.3641V38.8641V40.3641C32.2861 40.3641 40.3642 32.286 40.3642 22.3212H38.8642ZM22.3214 38.8641V37.3641C14.0134 37.3641 7.27853 30.6292 7.27853 22.3212H5.77853H4.27853C4.27853 32.286 12.3566 40.3641 22.3214 40.3641V38.8641ZM5.77853 22.3212H7.27853C7.27853 14.0133 14.0134 7.27841 22.3214 7.27841V5.77841V4.27841C12.3566 4.27841 4.27853 12.3565 4.27853 22.3212H5.77853ZM22.3214 5.77841V7.27841C30.6293 7.27841 37.3642 14.0133 37.3642 22.3212H38.8642H40.3642C40.3642 12.3565 32.2861 4.27841 22.3214 4.27841V5.77841ZM22.3214 9.91424H23.8214V1.64282H22.3214H20.8214V9.91424H22.3214ZM22.3214 42.9999H23.8214V34.7285H22.3214H20.8214V42.9999H22.3214ZM34.7285 22.3214V23.8214H42.9999V22.3214V20.8214H34.7285V22.3214ZM1.64282 22.3214V23.8214H9.91424V22.3214V20.8214H1.64282V22.3214ZM28.5249 22.3214H27.0249C27.0249 24.9191 24.9191 27.0249 22.3214 27.0249V28.5249V30.0249C26.5759 30.0249 30.0249 26.5759 30.0249 22.3214H28.5249ZM22.3214 28.5249V27.0249C19.7237 27.0249 17.6178 24.9191 17.6178 22.3214H16.1178H14.6178C14.6178 26.5759 18.0668 30.0249 22.3214 30.0249V28.5249ZM16.1178 22.3214H17.6178C17.6178 19.7237 19.7237 17.6178 22.3214 17.6178V16.1178V14.6178C18.0668 14.6178 14.6178 18.0668 14.6178 22.3214H16.1178ZM22.3214 16.1178V17.6178C24.9191 17.6178 27.0249 19.7237 27.0249 22.3214H28.5249H30.0249C30.0249 18.0668 26.5759 14.6178 22.3214 14.6178V16.1178Z"/>
</svg>
